<svg width="263" height="70" viewBox="0 0 263 70" fill="none" xmlns="http://www.w3.org/2000/svg">
    <path
        d="M54.6643 42.214C73.0281 35.3916 58.4802 57.5655 52.6286 62.2866C49.7169 64.6566 46.3422 66.5268 42.6882 67.6935C39.0257 68.8789 35.1309 69.3599 31.2275 69.1842C23.3926 68.8047 15.6123 65.3517 9.88193 59.5833C7.00778 56.7136 4.63331 53.2784 2.9558 49.492C1.25864 45.7055 0.27638 41.5668 0.0346608 37.3642C-0.150685 33.1607 0.405363 28.8651 1.74976 24.7733C3.09416 20.6901 5.20813 16.8209 7.97124 13.4318C13.4701 6.63664 21.6758 1.81317 30.6885 0.442702C31.8109 0.294314 32.9417 0.202189 34.0726 0.0904712C34.638 0.0256578 35.2035 0.025679 35.7783 0.0162981C36.3437 0.0162981 36.9092 -0.0203726 37.4849 0.0162981C39.7748 0.0623498 42.0656 0.377013 44.3281 0.840088C48.8439 1.81229 53.2299 3.61771 57.1521 6.19148C59.1268 7.46899 60.6458 9.03039 62.3515 10.6601C55.9455 12.7921 41.8524 6.82247 26.478 10.6601C42.6731 6.09455 54.2373 7.24887 62.3515 10.6601L52.529 28.5691C51.2543 26.4943 52.529 28.5691 51.2543 26.4943C50.6795 25.43 50.0021 24.4023 49.2232 23.448C48.4442 22.4852 47.5824 21.5778 46.6266 20.7728C42.8249 17.4767 37.6975 15.6065 32.3191 15.7642C26.997 15.8845 21.6091 18.0975 17.5298 22.0136C13.4317 25.893 10.7702 31.4107 10.3252 37.3633C10.3158 37.5211 10.3064 37.6686 10.297 37.8264C10.0007 43.6315 11.8362 49.6395 15.6191 54.4357C19.4576 59.3794 25.2717 62.9715 31.7716 64.0827C35.0173 64.6106 38.3919 64.6199 41.7025 63.9718C45.0038 63.3424 48.2119 62.0462 51.1236 60.2041C56.959 56.5473 52.9561 44.7724 54.6643 42.214Z"
        fill="#85F5D6" />
    <path
        d="M63.6426 43.6262C62.5362 50.7547 58.6321 57.5502 52.7652 62.2776C49.846 64.6506 46.4625 66.5233 42.7991 67.6914C39.127 68.8784 35.2221 69.36 31.3086 69.1841C23.4533 68.8041 15.6528 65.3466 9.90759 59.5706C7.02598 56.6972 4.58414 53.4203 2.90227 49.6289C1.20071 45.8375 0.277097 41.5306 0.0347508 37.3225C-0.151077 33.1135 0.406415 28.8123 1.75431 24.7152C3.1022 20.6266 5.22166 16.7523 7.99194 13.3588C13.5051 6.55474 21.732 1.72495 30.7682 0.352692C31.8935 0.204109 33.0273 0.111864 34.1611 0C21.5359 4.06041 10.3803 15.6764 10.3246 37.7853C10.0275 43.598 11.8678 49.6139 15.6605 54.4163C19.509 59.3666 25.3381 62.9633 31.8549 64.076C35.1091 64.6045 38.4925 64.6139 41.8117 63.9649C45.1215 63.3347 48.3379 62.0368 51.2572 60.1923C57.1069 56.5307 61.6901 50.5797 63.6426 43.6262Z"
        fill="url(#paint0_linear_982_146)" />
    <path
        d="M118.463 41.9241L121.793 44.9104C117.725 48.62 113.421 50.4749 108.881 50.4749C104.025 50.4749 99.8861 48.7633 96.4629 45.3401C93.0397 41.9169 91.3281 37.7776 91.3281 32.9221C91.3281 28.081 93.0397 23.9417 96.4629 20.5042C99.8861 17.0667 104.025 15.3479 108.881 15.3479C113.421 15.3479 117.725 17.2027 121.793 20.9124L118.463 23.9417C115.398 21.2203 112.204 19.8596 108.881 19.8596C105.286 19.8596 102.206 21.1344 99.6426 23.6838C97.0931 26.2333 95.8184 29.3127 95.8184 32.9221C95.8184 36.5458 97.0931 39.6324 99.6426 42.1819C102.206 44.7314 105.286 46.0061 108.881 46.0061C112.204 46.0061 115.398 44.6454 118.463 41.9241ZM131.59 30.9885C133.251 28.7398 135.292 27.5582 137.713 27.4436V32.0627C136.094 32.1487 134.805 32.6715 133.846 33.6311C132.399 35.0634 131.647 36.7678 131.59 38.7444V50.1096H127.143V28.0022H131.59V30.9885ZM161.217 40.0979V36.8323C160.959 35.443 160.271 34.1825 159.154 33.051C157.65 31.5614 155.846 30.8167 153.74 30.8167C151.62 30.8167 149.809 31.5614 148.305 33.051C146.815 34.5406 146.07 36.3453 146.07 38.4651C146.07 40.5706 146.815 42.3752 148.305 43.8792C149.809 45.3687 151.62 46.1135 153.74 46.1135C155.846 46.1135 157.65 45.3687 159.154 43.8792C160.271 42.7476 160.959 41.4872 161.217 40.0979ZM161.217 29.5491V28.0022H165.686V50.1311H161.217V47.3596C159.068 49.5797 156.576 50.6897 153.74 50.6897C150.36 50.6897 147.474 49.5009 145.082 47.1233C142.704 44.7314 141.516 41.8453 141.516 38.4651C141.516 35.0849 142.704 32.206 145.082 29.8284C147.474 27.4364 150.36 26.2405 153.74 26.2405C156.576 26.2405 159.068 27.3433 161.217 29.5491ZM177.609 57.5432H172.904L178.791 45.1897L170.562 28.0022H175.568L181.176 40.0979L186.783 28.0022H191.768L177.609 57.5432ZM206.957 26.1975C210.337 26.1975 213.216 27.3935 215.594 29.7854C217.986 32.1773 219.182 35.0634 219.182 38.4436C219.182 41.8238 217.986 44.7099 215.594 47.1018C213.216 49.4937 210.337 50.6897 206.957 50.6897C203.591 50.6897 200.712 49.4937 198.32 47.1018C195.928 44.7099 194.732 41.8238 194.732 38.4436C194.732 35.0634 195.928 32.1773 198.32 29.7854C200.712 27.3935 203.591 26.1975 206.957 26.1975ZM206.957 30.7737C204.837 30.7737 203.025 31.5256 201.521 33.0295C200.032 34.5334 199.287 36.3381 199.287 38.4436C199.287 40.5634 200.032 42.3681 201.521 43.8577C203.025 45.3472 204.837 46.092 206.957 46.092C209.077 46.092 210.882 45.3472 212.371 43.8577C213.875 42.3681 214.627 40.5634 214.627 38.4436C214.627 36.3381 213.875 34.5334 212.371 33.0295C210.882 31.5256 209.077 30.7737 206.957 30.7737ZM228.807 33.9319V50.1096H224.338V28.0022H228.807V30.5803C229.738 28.0595 231.607 26.7991 234.414 26.7991C236.806 26.7991 238.704 27.6513 240.107 29.3557C241.525 31.0458 242.256 33.1728 242.299 35.7366V50.1096H237.852V35.9084C237.852 34.6337 237.386 33.5452 236.455 32.6428C235.524 31.7262 234.414 31.2678 233.125 31.2678C231.85 31.2678 230.747 31.7118 229.816 32.5999C229.301 33.1298 228.964 33.5738 228.807 33.9319ZM251.516 28.0022V19.7092H255.963V28.0022H259.938V32.4495H255.963V50.1096H251.516V32.4495H247.541V28.0022H251.516Z"
        fill="#F3F3F3" />
    <defs>
        <linearGradient id="paint0_linear_982_146" x1="31.8213" y1="0" x2="31.8213" y2="69.2193"
            gradientUnits="userSpaceOnUse">
            <stop offset="0.35" stop-color="#0077FF" />
            <stop offset="1" stop-color="#66DBFF" />
        </linearGradient>
    </defs>
</svg>